<svg xmlns="http://www.w3.org/2000/svg" viewBox="0 0 509 227">
  <defs>
    <style>
      .cls-1 {
        fill: #fff;
      }
    </style>
  </defs>
  <g id="Static_Background">
    <ellipse class="cls-1" cx="254" cy="113.5" rx="254" ry="113.5" />
  </g>
  <g id="Background">
    <ellipse class="cls-2" cx="255" cy="113.5" rx="254" ry="113.5" />
  </g>
  <g id="Clouds">
    <g id="Cloud1" class="Cloud">
      <path id="path4339" class="cls-3"
        d="M423.6,139.11c-7.32,0-13.53,3.29-15.84,7.89h-.16c-8,0-14.4,5.65-14.4,12.63,0,.14,0,.27,0,.41-6.46,1.37-11.21,6-11.21,11.42,0,6.54,6.81,11.84,15.2,11.84a18,18,0,0,0,9.59-2.65,20.67,20.67,0,0,0,12.81,4.23,21.73,21.73,0,0,0,8.17-1.56,16.15,16.15,0,0,0,7,1.56c6.62,0,12.07-3.72,12.73-8.49a16.69,16.69,0,0,0,2.72-1.85,11.94,11.94,0,0,0,1.35.08c5.74,0,10.4-3.89,10.4-8.68,0-4.05-3.32-7.45-7.82-8.4a16.8,16.8,0,0,0-14.1-8.91c-1.53-5.43-8.33-9.52-16.48-9.52Z"
        transform="translate(-274 -18)" />
    </g>
    <g id="Cloud2" class="Cloud" data-name="layer1">
      <path id="path4339-2" data-name="path4339" class="cls-3"
        d="M451.11,95.51c-5.08,0-9.41,2.29-11,5.49H440c-5.53,0-10,3.93-10,8.78v.29c-4.49,1-7.79,4.14-7.79,7.94,0,4.55,4.73,8.23,10.57,8.23a12.38,12.38,0,0,0,6.66-1.85,14.36,14.36,0,0,0,8.91,3,15,15,0,0,0,5.68-1.09,11.1,11.1,0,0,0,4.89,1.09c4.6,0,8.39-2.59,8.85-5.91a11.83,11.83,0,0,0,1.89-1.28c.31,0,.62,0,.94,0,4,0,7.23-2.7,7.23-6,0-2.82-2.31-5.18-5.44-5.84a11.69,11.69,0,0,0-9.8-6.2c-1.06-3.77-5.79-6.62-11.46-6.62Z"
        transform="translate(-274 -18)" />
    </g>
    <g id="Cloud3" class="Cloud" data-name="layer1">
      <path id="path4339-3" data-name="path4339" class="cls-3"
        d="M589.29,51c-4.93,0-9.11,2.22-10.67,5.31h-.1c-5.36,0-9.7,3.81-9.7,8.51a2.72,2.72,0,0,0,0,.28c-4.35.92-7.55,4-7.55,7.69,0,4.4,4.58,8,10.23,8A12.07,12.07,0,0,0,578,79a13.89,13.89,0,0,0,8.63,2.85,14.72,14.72,0,0,0,5.5-1,10.72,10.72,0,0,0,4.73,1c4.46,0,8.13-2.5,8.58-5.72a10.9,10.9,0,0,0,1.83-1.24,9.07,9.07,0,0,0,.91.06c3.86,0,7-2.62,7-5.85,0-2.73-2.24-5-5.27-5.66a11.33,11.33,0,0,0-9.49-6c-1-3.66-5.61-6.41-11.1-6.41Z"
        transform="translate(-274 -18)" />
    </g>
    <g id="Cloud4" class="Cloud" data-name="layer1">
      <path id="path4339-4" data-name="path4339" class="cls-3"
        d="M678.1,48.55c-8.76,0-16.21,3.94-19,9.45h-.19c-9.53,0-17.25,6.77-17.25,15.12,0,.17,0,.34,0,.5-7.73,1.63-13.42,7.14-13.42,13.68,0,7.83,8.15,14.18,18.2,14.18A21.48,21.48,0,0,0,658,98.3a24.77,24.77,0,0,0,15.34,5.07,26,26,0,0,0,9.79-1.87,19.24,19.24,0,0,0,8.42,1.87c7.93,0,14.45-4.46,15.25-10.17A20,20,0,0,0,710,91a14.39,14.39,0,0,0,1.62.09c6.88,0,12.46-4.65,12.46-10.39,0-4.86-4-8.92-9.37-10.07-2.92-5.92-9.32-10.16-16.89-10.67-1.83-6.5-10-11.4-19.74-11.4Z"
        transform="translate(-274 -18)" />
    </g>
    <g id="Cloud5" class="Cloud" data-name="layer1">
      <path id="path4339-5" data-name="path4339" class="cls-3"
        d="M403.75,51.22c-7.14,1.64-12.47,6.25-13.68,11.25l-.16,0c-7.76,1.78-12.78,8.74-11.22,15.55l.1.4c-6,2.78-9.6,8.33-8.37,13.66,1.46,6.38,9.29,10,17.48,8.14a17.88,17.88,0,0,0,8.76-4.74,20.65,20.65,0,0,0,13.45,1.26,22,22,0,0,0,7.62-3.35,16.27,16.27,0,0,0,7.21-.06c6.46-1.48,10.94-6.33,10.52-11.14a17,17,0,0,0,2.24-2.41A12.29,12.29,0,0,0,439,79.6c5.61-1.29,9.28-6.13,8.2-10.8-.9-4-4.91-6.53-9.51-6.45A16.83,16.83,0,0,0,422,56.82c-2.71-5-10.26-7.42-18.22-5.6Z"
        transform="translate(-274 -18)" />
    </g>
    <g id="Cloud6" class="Cloud" data-name="layer1">
      <path id="path4339-6" data-name="path4339" class="cls-3"
        d="M623.19,130.2c-10,0-18.52,4.51-21.67,10.8h-.22c-10.88,0-19.7,7.73-19.7,17.27,0,.19,0,.38,0,.57-8.83,1.87-15.33,8.16-15.33,15.63,0,8.94,9.31,16.19,20.79,16.19A24.56,24.56,0,0,0,600.19,187a28.25,28.25,0,0,0,17.53,5.79,29.82,29.82,0,0,0,11.17-2.13,22,22,0,0,0,9.62,2.13c9.06,0,16.51-5.09,17.42-11.62a22.72,22.72,0,0,0,3.72-2.52,16.12,16.12,0,0,0,1.85.11c7.85,0,14.22-5.32,14.22-11.88,0-5.54-4.54-10.19-10.69-11.5-3.34-6.76-10.65-11.6-19.29-12.18-2.1-7.43-11.4-13-22.55-13Z"
        transform="translate(-274 -18)" />
    </g>
    <g id="Cloud7" class="Cloud" data-name="layer1">
      <path id="path4339-7" data-name="path4339" class="cls-3"
        d="M334.2,124.62c-6.85,0-12.67,3.08-14.82,7.38h-.15c-7.44,0-13.47,5.29-13.47,11.81v.39c-6,1.28-10.48,5.58-10.48,10.69,0,6.12,6.36,11.07,14.22,11.07a16.83,16.83,0,0,0,9-2.48,19.34,19.34,0,0,0,12,4A20.44,20.44,0,0,0,338.1,166a15.09,15.09,0,0,0,6.58,1.46c6.19,0,11.29-3.48,11.91-7.95a15.31,15.31,0,0,0,2.54-1.72c.42,0,.83.07,1.26.07,5.38,0,9.73-3.63,9.73-8.12,0-3.79-3.11-7-7.31-7.86a15.73,15.73,0,0,0-13.19-8.34c-1.43-5.08-7.79-8.9-15.42-8.9Z"
        transform="translate(-274 -18)" />
    </g>
  </g>
  <g id="Sun">
    <path class="cls-4"
      d="M519,65c1.54-2.49,1.8-5.44,1.86-8.3.3,5.6,4.58,9.61,7,14.34a7.15,7.15,0,0,1-4.09,9.6c-.51-4-1-8.09-1.62-12.11a40.13,40.13,0,0,1-2.19,12.29c-2.75-.91-5.23-3.25-5.3-6.29C514.19,70.76,517.43,68.13,519,65Z"
      transform="translate(-274 -18)" />
    <path class="cls-4"
      d="M502.2,67.9c.83-2.8.33-5.72-.36-8.5,1.74,5.33,6.91,8.09,10.45,12a7.17,7.17,0,0,1-1.47,10.34c-1.54-3.77-3.08-7.55-4.7-11.28a39.8,39.8,0,0,1,1.06,12.44c-2.88-.17-5.89-1.79-6.74-4.71C499.06,74.68,501.5,71.3,502.2,67.9Z"
      transform="translate(-274 -18)" />
    <path class="cls-4"
      d="M486.73,75c.08-2.92-1.16-5.61-2.54-8.11,3.06,4.69,8.76,6,13.2,8.93a7.16,7.16,0,0,1,1.26,10.36c-2.46-3.25-4.93-6.49-7.46-9.68a40,40,0,0,1,4.25,11.74c-2.83.59-6.16-.2-7.74-2.8C485.45,82.39,486.94,78.49,486.73,75Z"
      transform="translate(-274 -18)" />
    <path class="cls-4"
      d="M473.63,85.91c-.67-2.85-2.57-5.12-4.55-7.18,4.17,3.74,10,3.55,15.06,5.2a7.16,7.16,0,0,1,3.9,9.69c-3.22-2.5-6.44-5-9.71-7.42a39.68,39.68,0,0,1,7.14,10.24c-2.58,1.3-6,1.39-8.2-.7C474.3,93.35,474.73,89.2,473.63,85.91Z"
      transform="translate(-274 -18)" />
    <path class="cls-4"
      d="M463.8,99.81c-1.39-2.57-3.81-4.28-6.26-5.76,5,2.54,10.6.84,15.9,1.13a7.16,7.16,0,0,1,6.27,8.35c-3.75-1.58-7.52-3.16-11.3-4.66a40.1,40.1,0,0,1,9.55,8c-2.16,1.92-5.43,2.9-8.1,1.44C466.37,106.83,465.71,102.71,463.8,99.81Z"
      transform="translate(-274 -18)" />
    <path class="cls-4"
      d="M457.9,115.78c-2-2.12-4.79-3.14-7.54-3.94,5.49,1.16,10.46-1.93,15.65-3a7.16,7.16,0,0,1,8.22,6.44c-4-.56-8.08-1.11-12.12-1.57a39.66,39.66,0,0,1,11.31,5.3c-1.59,2.41-4.5,4.2-7.45,3.49C462.2,121.9,460.5,118.09,457.9,115.78Z"
      transform="translate(-274 -18)" />
    <path class="cls-4"
      d="M456.33,132.74c-2.49-1.53-5.44-1.8-8.3-1.85,5.6-.31,9.61-4.58,14.34-7A7.15,7.15,0,0,1,472,128c-4,.51-8.09,1-12.11,1.62a39.84,39.84,0,0,1,12.29,2.19c-.91,2.74-3.25,5.23-6.29,5.3C462.07,137.53,459.44,134.29,456.33,132.74Z"
      transform="translate(-274 -18)" />
    <path class="cls-4"
      d="M459.21,149.53c-2.8-.84-5.72-.34-8.5.35,5.33-1.74,8.09-6.91,12-10.44a7.16,7.16,0,0,1,10.34,1.46c-3.77,1.54-7.55,3.09-11.28,4.71a39.8,39.8,0,0,1,12.44-1.07c-.16,2.89-1.79,5.89-4.71,6.75C466,152.67,462.61,150.22,459.21,149.53Z"
      transform="translate(-274 -18)" />
    <path class="cls-4"
      d="M466.33,165c-2.92-.09-5.61,1.15-8.11,2.54,4.69-3.07,6-8.77,8.93-13.21a7.16,7.16,0,0,1,10.36-1.26c-3.25,2.47-6.49,4.93-9.68,7.47a39.76,39.76,0,0,1,11.74-4.26c.59,2.84-.2,6.16-2.8,7.74C473.7,166.27,469.8,164.79,466.33,165Z"
      transform="translate(-274 -18)" />
    <path class="cls-4"
      d="M477.22,178.09c-2.85.68-5.12,2.57-7.18,4.56,3.74-4.18,3.55-10,5.2-15.07a7.15,7.15,0,0,1,9.69-3.89c-2.5,3.21-5,6.44-7.42,9.71a40,40,0,0,1,10.24-7.15c1.3,2.59,1.39,6-.7,8.2C484.66,177.42,480.51,177,477.22,178.09Z"
      transform="translate(-274 -18)" />
    <path class="cls-4"
      d="M491.12,187.93c-2.57,1.39-4.28,3.81-5.76,6.25,2.54-5,.84-10.6,1.13-15.9a7.15,7.15,0,0,1,8.35-6.26c-1.58,3.75-3.16,7.51-4.65,11.3a39.91,39.91,0,0,1,8-9.56c1.92,2.16,2.9,5.44,1.44,8.1C498.14,185.35,494,186,491.12,187.93Z"
      transform="translate(-274 -18)" />
    <path class="cls-4"
      d="M507.1,193.83c-2.13,2-3.15,4.79-3.94,7.53,1.15-5.48-1.94-10.46-3-15.65a7.15,7.15,0,0,1,6.44-8.21c-.56,4-1.11,8.07-1.57,12.12a39.66,39.66,0,0,1,5.3-11.31c2.41,1.58,4.2,4.49,3.49,7.45C513.21,189.53,509.4,191.23,507.1,193.83Z"
      transform="translate(-274 -18)" />
    <path class="cls-4"
      d="M524.05,195.39c-1.53,2.49-1.8,5.44-1.85,8.3-.31-5.6-4.58-9.6-7-14.33-1.81-3.69.34-8.22,4.1-9.61.51,4,1,8.09,1.62,12.12a39.85,39.85,0,0,1,2.19-12.3c2.74.91,5.23,3.26,5.3,6.3C528.84,189.65,525.6,192.28,524.05,195.39Z"
      transform="translate(-274 -18)" />
    <path class="cls-4"
      d="M540.84,192.52c-.84,2.8-.34,5.72.35,8.49-1.74-5.33-6.91-8.09-10.44-12a7.14,7.14,0,0,1,1.46-10.33c1.54,3.77,3.09,7.54,4.71,11.28a39.89,39.89,0,0,1-1.07-12.45c2.89.17,5.89,1.79,6.75,4.71C544,185.73,541.53,189.11,540.84,192.52Z"
      transform="translate(-274 -18)" />
    <path class="cls-4"
      d="M556.31,185.39c-.09,2.92,1.15,5.61,2.54,8.11-3.07-4.69-8.77-6-13.21-8.92a7.16,7.16,0,0,1-1.26-10.36c2.47,3.24,4.93,6.49,7.47,9.68a39.92,39.92,0,0,1-4.26-11.75c2.84-.58,6.16.21,7.74,2.8C557.59,178,556.1,181.92,556.31,185.39Z"
      transform="translate(-274 -18)" />
    <path class="cls-4"
      d="M569.4,174.51c.68,2.84,2.57,5.12,4.56,7.18-4.18-3.75-10-3.56-15.07-5.21A7.14,7.14,0,0,1,555,166.8c3.21,2.49,6.44,5,9.71,7.42A40.19,40.19,0,0,1,557.56,164c2.59-1.3,6-1.39,8.2.71C568.73,167.06,568.3,171.21,569.4,174.51Z"
      transform="translate(-274 -18)" />
    <path class="cls-4"
      d="M579.24,160.6c1.39,2.58,3.81,4.29,6.26,5.76-5-2.54-10.61-.84-15.9-1.13a7.15,7.15,0,0,1-6.27-8.34c3.75,1.58,7.51,3.15,11.3,4.65a39.72,39.72,0,0,1-9.56-8c2.16-1.92,5.44-2.9,8.1-1.44C576.66,153.59,577.32,157.71,579.24,160.6Z"
      transform="translate(-274 -18)" />
    <path class="cls-4"
      d="M585.14,144.63c2,2.12,4.79,3.15,7.53,3.94-5.48-1.16-10.46,1.94-15.65,3a7.15,7.15,0,0,1-8.21-6.44c4,.55,8.07,1.1,12.12,1.57a40.21,40.21,0,0,1-11.31-5.3c1.58-2.42,4.5-4.21,7.45-3.49C580.84,138.52,582.54,142.33,585.14,144.63Z"
      transform="translate(-274 -18)" />
    <path class="cls-4"
      d="M586.7,127.67c2.49,1.54,5.44,1.8,8.3,1.86-5.6.3-9.6,4.58-14.33,7a7.16,7.16,0,0,1-9.61-4.09c4-.51,8.09-1,12.12-1.62a40.14,40.14,0,0,1-12.3-2.19c.91-2.75,3.26-5.23,6.3-5.3C581,122.88,583.59,126.12,586.7,127.67Z"
      transform="translate(-274 -18)" />
    <path class="cls-4"
      d="M583.83,110.89c2.8.83,5.72.33,8.49-.36-5.33,1.74-8.09,6.91-12,10.45A7.16,7.16,0,0,1,570,119.51c3.77-1.54,7.54-3.08,11.28-4.7a39.88,39.88,0,0,1-12.45,1.06c.17-2.88,1.79-5.89,4.71-6.74C577,107.74,580.42,110.19,583.83,110.89Z"
      transform="translate(-274 -18)" />
    <path class="cls-4"
      d="M576.7,95.42c2.92.08,5.61-1.16,8.12-2.54-4.7,3.06-6,8.76-8.93,13.2a7.16,7.16,0,0,1-10.36,1.26c3.24-2.46,6.49-4.93,9.68-7.46a40.19,40.19,0,0,1-11.75,4.25c-.58-2.83.21-6.16,2.8-7.74C569.34,94.14,573.23,95.63,576.7,95.42Z"
      transform="translate(-274 -18)" />
    <path class="cls-4"
      d="M565.82,82.32c2.84-.67,5.12-2.57,7.18-4.55-3.75,4.17-3.56,10-5.21,15.06a7.15,7.15,0,0,1-9.68,3.9c2.49-3.22,5-6.44,7.42-9.71a39.9,39.9,0,0,1-10.25,7.14c-1.3-2.58-1.39-6,.71-8.2C558.37,83,562.52,83.42,565.82,82.32Z"
      transform="translate(-274 -18)" />
    <path class="cls-4"
      d="M551.91,72.49c2.58-1.39,4.29-3.81,5.76-6.26-2.54,5-.84,10.6-1.13,15.9a7.16,7.16,0,0,1-8.34,6.27c1.58-3.75,3.15-7.52,4.65-11.3a39.87,39.87,0,0,1-8.05,9.55c-1.92-2.16-2.9-5.43-1.44-8.1C544.9,75.06,549,74.4,551.91,72.49Z"
      transform="translate(-274 -18)" />
    <path class="cls-4"
      d="M535.94,66.59c2.12-2,3.15-4.79,3.94-7.54-1.16,5.49,1.94,10.46,3,15.65a7.16,7.16,0,0,1-6.44,8.22c.55-4,1.1-8.08,1.57-12.12a40.21,40.21,0,0,1-5.3,11.31c-2.42-1.59-4.21-4.5-3.49-7.45C529.83,70.89,533.64,69.19,535.94,66.59Z"
      transform="translate(-274 -18)" />
    <circle class="cls-4" cx="247.52" cy="112.21" r="49.37" />
  </g>
</svg>