<svg xmlns="http://www.w3.org/2000/svg" viewBox="0 0 508 227">
  <defs>
    <style>
      .cls-1 {
        fill: #fff;
      }
    </style>
  </defs>
  <g id="Static_Background">
    <ellipse class="cls-1" cx="254" cy="113.5" rx="254" ry="113.5" />
  </g>
  <g id="Background">
    <ellipse class="cls-2" cx="254" cy="113.5" rx="254" ry="113.5" />
  </g>
  <g id="Stars" class="cls-3">
    <polygon
      points="105.15 64.56 100.74 63.31 97.22 66.24 97.04 61.66 93.17 59.22 97.47 57.63 98.6 53.19 101.43 56.79 106 56.49 103.46 60.3 105.15 64.56" />
    <polygon
      points="148.67 117.64 144.76 116.54 141.64 119.13 141.48 115.07 138.05 112.9 141.86 111.5 142.86 107.56 145.37 110.75 149.43 110.49 147.17 113.87 148.67 117.64" />
    <polygon
      points="229.33 72.76 227.32 72.19 225.71 73.53 225.62 71.44 223.85 70.32 225.82 69.6 226.34 67.57 227.63 69.21 229.72 69.08 228.56 70.82 229.33 72.76" />
    <polygon
      points="165.98 71.97 161.76 70.78 158.39 73.58 158.22 69.2 154.52 66.86 158.63 65.34 159.71 61.09 162.42 64.53 166.8 64.25 164.36 67.9 165.98 71.97" />
    <polygon
      points="308.29 124.71 301.84 122.89 296.68 127.17 296.42 120.47 290.75 116.89 297.04 114.57 298.7 108.07 302.85 113.34 309.54 112.91 305.81 118.48 308.29 124.71" />
    <polygon
      points="381.71 141.43 375.26 139.61 370.1 143.89 369.84 137.19 364.17 133.61 370.46 131.29 372.12 124.8 376.26 130.06 382.95 129.63 379.23 135.2 381.71 141.43" />
    <polygon
      points="456.38 111.23 449.93 109.41 444.77 113.69 444.51 106.99 438.85 103.41 445.14 101.09 446.79 94.59 450.94 99.86 457.63 99.43 453.9 105 456.38 111.23" />
    <polygon
      points="387.2 108.48 380.75 106.66 375.59 110.94 375.33 104.25 369.66 100.66 375.95 98.34 377.61 91.85 381.76 97.11 388.45 96.68 384.72 102.26 387.2 108.48" />
    <polygon
      points="211.92 149.22 205.47 147.4 200.31 151.69 200.05 144.99 194.39 141.4 200.68 139.09 202.33 132.59 206.48 137.85 213.17 137.42 209.44 143 211.92 149.22" />
    <polygon
      points="449.14 70.59 443.29 73.86 442.67 80.53 437.75 75.98 431.21 77.46 434.02 71.37 430.6 65.6 437.25 66.39 441.68 61.36 442.99 67.93 449.14 70.59" />
    <polygon
      points="445.8 62.72 441.64 61.55 438.31 64.31 438.14 59.99 434.49 57.68 438.55 56.19 439.61 52 442.29 55.39 446.6 55.12 444.2 58.71 445.8 62.72" />
    <polygon
      points="328.66 177.89 324.33 176.67 320.87 179.54 320.69 175.04 316.88 172.64 321.11 171.08 322.22 166.72 325.01 170.25 329.5 169.97 327 173.71 328.66 177.89" />
    <polygon
      points="409.03 133.41 404.97 132.26 401.72 134.96 401.56 130.74 397.99 128.48 401.95 127.03 402.99 122.93 405.6 126.25 409.82 125.98 407.47 129.49 409.03 133.41" />
    <polygon
      points="497.38 94.59 492.32 93.16 488.28 96.52 488.08 91.27 483.64 88.46 488.57 86.64 489.87 81.55 493.12 85.68 498.36 85.34 495.44 89.71 497.38 94.59" />
    <polygon
      points="480.27 145.3 473.82 143.48 468.66 147.76 468.4 141.06 462.73 137.48 469.02 135.16 470.68 128.66 474.83 133.93 481.52 133.5 477.79 139.07 480.27 145.3" />
    <polygon
      points="59.88 76.34 56.01 75.24 52.92 77.81 52.76 73.8 49.36 71.65 53.13 70.26 54.13 66.36 56.62 69.52 60.63 69.26 58.39 72.6 59.88 76.34" />
    <polygon
      points="274.81 114.52 268.36 112.69 263.2 116.98 262.94 110.28 257.27 106.7 263.56 104.38 265.22 97.88 269.37 103.15 276.06 102.72 272.33 108.29 274.81 114.52" />
    <polygon
      points="86.63 88.77 80.18 86.95 75.02 91.23 74.76 84.53 69.09 80.95 75.38 78.63 77.04 72.14 81.19 77.4 87.88 76.97 84.15 82.54 86.63 88.77" />
    <polygon
      points="333.82 89.9 325.14 87.45 318.2 93.21 317.85 84.2 310.23 79.38 318.69 76.27 320.92 67.53 326.5 74.61 335.5 74.03 330.49 81.53 333.82 89.9" />
    <polygon
      points="359.25 42.82 352.8 40.99 347.64 45.28 347.38 38.58 341.71 34.99 348 32.68 349.66 26.18 353.81 31.45 360.5 31.02 356.77 36.59 359.25 42.82" />
    <polygon
      points="37.59 105.26 31.14 103.44 25.98 107.72 25.72 101.02 20.05 97.44 26.34 95.12 28 88.63 32.15 93.89 38.84 93.46 35.11 99.03 37.59 105.26" />
    <polygon
      points="78.01 157.98 71.56 156.16 66.4 160.44 66.14 153.75 60.47 150.16 66.76 147.84 68.42 141.35 72.57 146.61 79.26 146.18 75.53 151.75 78.01 157.98" />
    <polygon
      points="171.68 173.78 165.23 171.96 160.07 176.24 159.81 169.54 154.15 165.96 160.44 163.64 162.09 157.15 166.24 162.41 172.93 161.98 169.21 167.55 171.68 173.78" />
    <polygon
      points="109.66 133.21 105.05 131.91 101.36 134.97 101.17 130.18 97.12 127.62 101.62 125.96 102.8 121.31 105.77 125.08 110.56 124.77 107.89 128.76 109.66 133.21" />
    <polygon
      points="233.89 149.8 227.44 147.98 222.28 152.26 222.02 145.56 216.35 141.98 222.64 139.66 224.3 133.16 228.45 138.43 235.14 138 231.41 143.57 233.89 149.8" />
    <polygon
      points="68.66 124.78 62.2 122.96 57.05 127.24 56.79 120.54 51.12 116.96 57.41 114.64 59.07 108.15 63.21 113.41 69.9 112.98 66.18 118.55 68.66 124.78" />
    <polygon
      points="290.38 48.53 284.53 51.8 283.91 58.48 278.99 53.92 272.45 55.4 275.26 49.31 271.84 43.55 278.5 44.34 282.92 39.3 284.23 45.88 290.38 48.53" />
  </g>
  <g id="Moon">
    <path class="cls-5"
      d="M479.73,137.58a54.49,54.49,0,0,0-19.17,9.95,69.25,69.25,0,0,0-8.12,7.9c-.18.21-.85,1.08-1.5,1.92a62.58,62.58,0,0,0-4,5.68c-1.22,1.95-2.76,4.62-2.91,5-.07.19-.42,1-.79,1.71-8.48,17.58-9.88,39.24-3.84,59.42,4.85,16.22,14.1,30.26,26.38,40a61.68,61.68,0,0,0,25.44,12.31,53.69,53.69,0,0,0,13.15,1.19,43.36,43.36,0,0,0,8.68-1.09,41.79,41.79,0,0,0,7.58-2.09c.78-.29,1.67-.62,2-.7a17.54,17.54,0,0,0,1.77-.78,55.67,55.67,0,0,0,14.14-9.45,56.36,56.36,0,0,0,8.06-8.88c2-2.73,2.19-3.08,1.62-3.53-.2-.16-.45-.14-2.27.17-16.65,2.83-34.09-2.89-48.21-15.77-14.43-13.18-23.77-32.95-25.46-53.9-1.41-17.34,2.55-34.2,11.19-47.73.87-1.36.87-1.33.79-1.72-.12-.58-.35-.62-1.9-.29C481.58,137.09,480.41,137.39,479.73,137.58Z"
      transform="translate(-265 -106)" />
  </g>
</svg>